<svg id="Layer_1" data-name="Layer 1" xmlns="http://www.w3.org/2000/svg" viewBox="0 0 1080 1080"><path d="m423.91 136.5 326.41 382.08a21.14 21.14 0 0 1-12.22 34.51L244 644.72a21.13 21.13 0 0 1-23.77-27.83l167.69-473.72a21.13 21.13 0 0 1 35.99-6.67Z" style="fill:#d35e5d"/><path d="m417.55 268.39 379.94 328.89a21.13 21.13 0 0 1-6.9 35.94l-474.81 164.6a21.13 21.13 0 0 1-27.67-24L383 280.37a21.14 21.14 0 0 1 34.55-11.98Z" style="fill:#a55555"/><path d="m415.25 408.93 435.2 251.26a21.14 21.14 0 0 1 0 36.6l-435.2 251.26a21.13 21.13 0 0 1-31.7-18.3V427.23a21.13 21.13 0 0 1 31.7-18.3Z" style="fill:#894d4d"/></svg>